<?xml version="1.0" standalone="no"?>
<!DOCTYPE svg PUBLIC "-//W3C//DTD SVG 20010904//EN"
 "http://www.w3.org/TR/2001/REC-SVG-20010904/DTD/svg10.dtd">
<svg version="1.0" xmlns="http://www.w3.org/2000/svg"
 width="48.000000pt" height="48.000000pt" viewBox="0 0 48.000000 48.000000"
 preserveAspectRatio="xMidYMid meet">

<g transform="translate(0.000000,48.000000) scale(0.100000,-0.100000)"
fill="#000000" stroke="none">
<path d="M219 398 c17 -29 70 -122 118 -205 49 -84 91 -153 95 -153 8 0 48 74
48 89 0 15 -169 304 -183 313 -7 4 -34 8 -60 8 l-49 0 31 -52z"/>
<path d="M98 296 c-27 -46 -48 -89 -48 -95 0 -7 33 -11 100 -11 58 0 100 4
100 10 0 9 -98 180 -103 180 -1 0 -23 -38 -49 -84z"/>
<path d="M10 117 c0 -7 11 -29 25 -50 l26 -37 145 0 145 0 -27 50 -27 50 -144
0 c-109 0 -143 -3 -143 -13z"/>
</g>
</svg>
